<svg width="300" height="300" viewBox="0 0 300 300" fill="none" xmlns="http://www.w3.org/2000/svg">
<path d="M215.89 170.195L228.49 233.668C231.979 251.195 222.063 258.395 206.463 249.663L150 218.053L93.5369 249.663C77.9369 258.395 68.0211 251.195 71.5105 233.668L77.779 202.074L84.1105 170.179L60.2684 148.121L36.6158 126.253C23.479 114.11 27.2684 102.458 45.0158 100.358L77.0053 96.5683L109.279 92.7473L136.389 33.9789C143.874 17.7473 156.126 17.7473 163.611 33.9789L190.721 92.7473L222.995 96.5683L254.984 100.358C272.732 102.458 276.521 114.11 263.4 126.253L239.747 148.105L215.89 170.195Z" fill="#F8EE5F"/>
</svg>
