<svg width="300" height="300" viewBox="0 0 300 300" fill="none" xmlns="http://www.w3.org/2000/svg">
<path d="M214.191 168.36L213.165 169.31L213.437 170.681L226.037 234.155L226.038 234.157C227.72 242.609 225.948 247.47 223.166 249.49C220.383 251.51 215.208 251.693 207.684 247.482C207.684 247.482 207.684 247.482 207.684 247.482L151.221 215.871L150 215.187L148.779 215.871L92.3158 247.482C92.3158 247.482 92.3157 247.482 92.3156 247.482C84.7918 251.693 79.6166 251.51 76.8341 249.49C74.0525 247.47 72.2796 242.609 73.9624 234.157L73.9627 234.155L80.2311 202.56L80.2312 202.56L86.5627 170.666L86.8351 169.294L85.8083 168.344L61.9662 146.286L61.9656 146.285L38.313 124.417L38.3127 124.417C31.9763 118.56 30.5505 113.581 31.6121 110.311C32.6735 107.042 36.7501 103.853 45.3096 102.84L45.3099 102.84L77.2992 99.051L77.2994 99.051L109.573 95.2299L110.963 95.0654L111.549 93.7945L138.66 35.0261L138.66 35.0257C142.269 27.1973 146.562 24.3052 150 24.3052C153.438 24.3052 157.731 27.1973 161.34 35.0257L161.34 35.0261L188.451 93.7945L189.037 95.0654L190.427 95.2299L222.701 99.051L222.701 99.051L254.69 102.84L254.69 102.84C263.25 103.853 267.327 107.042 268.39 110.312C269.454 113.583 268.03 118.562 261.702 124.418L238.051 146.269L238.049 146.271L214.191 168.36Z" stroke="white" stroke-width="5"/>
</svg>
